<?xml version="1.0" standalone="no"?>
<!DOCTYPE svg PUBLIC "-//W3C//DTD SVG 20010904//EN"
 "http://www.w3.org/TR/2001/REC-SVG-20010904/DTD/svg10.dtd">
<svg version="1.0" xmlns="http://www.w3.org/2000/svg"
 width="512.000000pt" height="512.000000pt" viewBox="0 0 512.000000 512.000000"
 preserveAspectRatio="xMidYMid meet">
<metadata>
Created by potrace 1.14, written by Peter Selinger 2001-2017
</metadata>
<g transform="translate(0.000000,512.000000) scale(0.100000,-0.100000)"
fill="#000000" stroke="none">
<path d="M2389 5061 c-156 -50 -258 -188 -261 -355 -2 -82 5 -128 28 -188 43
-111 126 -179 224 -183 44 -2 145 26 164 45 17 17 32 11 57 -24 108 -152 187
-200 284 -175 94 25 151 107 143 205 -6 66 -32 103 -137 186 l-79 63 23 45
c79 157 31 286 -133 363 -59 27 -79 32 -162 33 -68 2 -111 -2 -151 -15z"/>
<path d="M3835 4972 c-199 -21 -425 -193 -530 -403 -139 -275 -30 -523 232
-528 39 -1 43 -4 63 -43 23 -46 85 -99 137 -116 18 -6 70 -10 115 -8 67 2 88
-1 110 -16 56 -39 136 -68 196 -72 232 -18 346 192 229 421 -15 28 -31 55 -37
58 -8 5 -9 32 -5 80 10 105 -12 174 -72 231 -25 25 -56 47 -69 50 -13 4 -24 9
-25 13 -1 3 -2 29 -4 56 -4 87 -32 152 -87 206 -53 50 -162 81 -253 71z"/>
<path d="M1337 4848 c-85 -91 -106 -236 -52 -356 64 -141 222 -220 375 -187
88 19 184 93 173 133 -7 28 -426 442 -447 442 -10 0 -32 -15 -49 -32z"/>
<path d="M1047 4132 c-25 -28 -21 -50 17 -88 37 -37 66 -43 90 -18 25 24 19
48 -21 87 -41 41 -62 46 -86 19z"/>
<path d="M3014 3854 c-51 -33 -72 -68 -78 -128 -8 -76 37 -149 107 -175 107
-41 227 43 227 157 0 98 -61 163 -158 170 -49 3 -63 0 -98 -24z"/>
<path d="M1603 3839 c-50 -9 -122 -40 -165 -70 -27 -20 -44 -22 -137 -23 -91
-1 -112 -4 -151 -25 -52 -27 -94 -70 -116 -120 -16 -36 -16 -36 -82 -37 -185
-3 -305 -147 -289 -347 26 -321 387 -654 695 -641 173 8 292 131 292 303 0 56
1 57 34 69 38 14 100 71 120 111 27 52 38 138 25 205 -7 36 -4 47 26 91 66
101 88 214 60 311 -37 129 -164 199 -312 173z"/>
<path d="M3675 3241 c-320 -320 -421 -426 -423 -447 -4 -30 23 -59 103 -113
183 -125 422 -142 620 -46 78 38 158 96 188 136 15 20 17 31 9 46 -15 27 34
103 65 103 23 0 53 24 53 43 0 7 -7 23 -16 36 -14 19 -14 29 -4 67 7 24 19 44
26 44 60 0 52 205 -14 350 -25 56 -79 137 -116 177 -46 49 -44 51 -491 -396z"/>
<path d="M2302 3580 c-57 -30 -85 -71 -90 -134 -5 -65 17 -116 63 -152 75 -57
191 -37 245 42 29 43 34 122 10 168 -42 82 -147 117 -228 76z"/>
<path d="M2949 3151 c-42 -42 -48 -61 -23 -85 24 -25 57 -19 92 17 36 37 41
66 14 90 -27 25 -40 21 -83 -22z"/>
<path d="M2312 2735 c-69 -13 -80 -20 -87 -55 -2 -12 -6 -23 -7 -24 -2 -1 -17
-11 -34 -23 -24 -17 -41 -21 -67 -16 -30 4 -38 1 -52 -20 -12 -19 -14 -31 -7
-44 15 -28 -32 -103 -65 -103 -37 0 -60 -66 -62 -176 -1 -49 -2 -51 -28 -49
-70 4 -177 -36 -250 -93 l-49 -40 -25 28 c-96 109 -255 173 -414 166 -144 -6
-248 -50 -349 -149 -77 -76 -138 -194 -159 -307 l-13 -75 -70 -1 c-97 -1 -129
-10 -163 -50 -39 -43 -45 -71 -37 -148 11 -111 18 -140 57 -260 46 -140 61
-166 93 -166 18 0 31 -11 49 -44 14 -25 22 -46 17 -48 -4 -2 -10 -13 -14 -25
-9 -28 27 -67 54 -58 10 3 23 0 29 -7 55 -65 59 -72 41 -83 -17 -10 8 -56 58
-104 202 -199 470 -332 742 -368 25 -3 47 -9 50 -14 3 -5 5 -52 5 -106 -1
-107 7 -146 39 -181 51 -57 4 -55 966 -55 962 0 915 -3 966 55 33 38 40 68 39
181 0 100 1 108 20 112 11 3 67 14 124 25 280 56 572 233 747 455 21 28 41 52
44 55 18 18 73 108 112 185 71 138 125 321 135 458 5 63 2 84 -12 110 -25 47
-75 76 -137 80 l-52 3 -16 65 c-78 322 -429 495 -721 355 l-49 -23 -25 31
c-14 18 -51 47 -81 66 -51 31 -63 34 -138 34 -64 1 -91 -4 -131 -22 l-50 -23
-20 28 c-92 129 -278 198 -427 158 -24 -6 -28 -3 -47 38 -43 94 -121 177 -211
226 -100 53 -200 68 -318 46z"/>
</g>
</svg>
